<mxfile host="Electron" agent="Mozilla/5.0 (Windows NT 10.0; Win64; x64) AppleWebKit/537.36 (KHTML, like Gecko) draw.io/26.2.15 Chrome/134.0.6998.205 Electron/35.2.1 Safari/537.36" version="26.2.15">
  <diagram name="K3S_HE" id="W2pJGJ9LZ5hfRzjOm0oM">
    <mxGraphModel dx="1090" dy="657" grid="1" gridSize="10" guides="1" tooltips="1" connect="1" arrows="1" fold="1" page="1" pageScale="1" pageWidth="827" pageHeight="1169" math="0" shadow="0">
      <root>
        <mxCell id="0" />
        <mxCell id="1" parent="0" />
        <mxCell id="weJZYdWANkqrHa0fTlkY-1" value="\" style="rounded=1;whiteSpace=wrap;html=1;fontFamily=Atkinson Hyperlegible Next;fontSize=12;fontColor=default;labelBackgroundColor=default;resizable=1;" vertex="1" parent="1">
          <mxGeometry x="160.07000000000005" y="40" width="480" height="80" as="geometry" />
        </mxCell>
        <mxCell id="weJZYdWANkqrHa0fTlkY-2" style="edgeStyle=none;shape=connector;rounded=1;jumpStyle=none;jumpSize=6;orthogonalLoop=1;jettySize=auto;html=1;exitX=1;exitY=0.5;exitDx=0;exitDy=0;shadow=0;strokeColor=default;strokeWidth=1;align=center;verticalAlign=middle;fontFamily=Atkinson Hyperlegible Next;fontSize=12;fontColor=default;labelBackgroundColor=default;resizable=1;startArrow=none;startFill=0;startSize=6;endArrow=block;endFill=1;endSize=6;flowAnimation=0;" edge="1" parent="1" source="weJZYdWANkqrHa0fTlkY-3" target="weJZYdWANkqrHa0fTlkY-22">
          <mxGeometry relative="1" as="geometry" />
        </mxCell>
        <mxCell id="weJZYdWANkqrHa0fTlkY-3" value="" style="rounded=1;whiteSpace=wrap;html=1;fontFamily=Atkinson Hyperlegible Next;fontSize=12;fontColor=default;labelBackgroundColor=default;resizable=1;" vertex="1" parent="1">
          <mxGeometry x="160.12" y="160" width="480" height="80" as="geometry" />
        </mxCell>
        <mxCell id="weJZYdWANkqrHa0fTlkY-4" style="edgeStyle=none;shape=connector;rounded=1;jumpStyle=none;jumpSize=6;orthogonalLoop=1;jettySize=auto;html=1;exitX=0.5;exitY=0;exitDx=0;exitDy=0;entryX=0.25;entryY=1;entryDx=0;entryDy=0;shadow=0;strokeColor=default;strokeWidth=1;align=center;verticalAlign=middle;fontFamily=Atkinson Hyperlegible Next;fontSize=12;fontColor=default;labelBackgroundColor=default;resizable=1;startArrow=none;startFill=0;startSize=6;endArrow=block;endFill=1;endSize=6;flowAnimation=0;" edge="1" parent="1" source="weJZYdWANkqrHa0fTlkY-7" target="weJZYdWANkqrHa0fTlkY-18">
          <mxGeometry relative="1" as="geometry" />
        </mxCell>
        <mxCell id="weJZYdWANkqrHa0fTlkY-5" style="edgeStyle=none;shape=connector;rounded=1;jumpStyle=none;jumpSize=6;orthogonalLoop=1;jettySize=auto;html=1;exitX=0.5;exitY=0;exitDx=0;exitDy=0;entryX=0.75;entryY=1;entryDx=0;entryDy=0;shadow=0;strokeColor=default;strokeWidth=1;align=center;verticalAlign=middle;fontFamily=Atkinson Hyperlegible Next;fontSize=12;fontColor=default;labelBackgroundColor=default;resizable=1;startArrow=none;startFill=0;startSize=6;endArrow=block;endFill=1;endSize=6;flowAnimation=0;" edge="1" parent="1" source="weJZYdWANkqrHa0fTlkY-7" target="weJZYdWANkqrHa0fTlkY-14">
          <mxGeometry relative="1" as="geometry" />
        </mxCell>
        <mxCell id="weJZYdWANkqrHa0fTlkY-6" style="edgeStyle=none;shape=connector;rounded=1;jumpStyle=none;jumpSize=6;orthogonalLoop=1;jettySize=auto;html=1;exitX=0.5;exitY=0;exitDx=0;exitDy=0;shadow=0;strokeColor=default;strokeWidth=1;align=center;verticalAlign=middle;fontFamily=Atkinson Hyperlegible Next;fontSize=12;fontColor=default;labelBackgroundColor=default;resizable=1;startArrow=none;startFill=0;startSize=6;endArrow=block;endFill=1;endSize=6;flowAnimation=0;" edge="1" parent="1" source="weJZYdWANkqrHa0fTlkY-7" target="weJZYdWANkqrHa0fTlkY-26">
          <mxGeometry relative="1" as="geometry" />
        </mxCell>
        <mxCell id="weJZYdWANkqrHa0fTlkY-7" value="Load Balancer" style="rounded=0;whiteSpace=wrap;html=1;fontFamily=Atkinson Hyperlegible Next;fontSize=12;labelBackgroundColor=none;strokeWidth=1;movable=1;resizable=1;rotatable=1;deletable=1;editable=1;locked=0;connectable=1;" vertex="1" parent="1">
          <mxGeometry x="160.09000000000003" y="280" width="479.98" height="40" as="geometry" />
        </mxCell>
        <mxCell id="weJZYdWANkqrHa0fTlkY-8" value="Worker" style="rounded=0;whiteSpace=wrap;html=1;fontFamily=Atkinson Hyperlegible Next;fontSize=12;labelBackgroundColor=none;strokeWidth=1;movable=1;resizable=1;rotatable=1;deletable=1;editable=1;locked=0;connectable=1;" vertex="1" parent="1">
          <mxGeometry x="170.04000000000008" y="60" width="140.03" height="40" as="geometry" />
        </mxCell>
        <mxCell id="weJZYdWANkqrHa0fTlkY-9" value="Worker" style="rounded=0;whiteSpace=wrap;html=1;fontFamily=Atkinson Hyperlegible Next;fontSize=12;labelBackgroundColor=none;strokeWidth=1;movable=1;resizable=1;rotatable=1;deletable=1;editable=1;locked=0;connectable=1;" vertex="1" parent="1">
          <mxGeometry x="490.0400000000002" y="60" width="140.03" height="40" as="geometry" />
        </mxCell>
        <mxCell id="weJZYdWANkqrHa0fTlkY-10" value="Worker" style="rounded=0;whiteSpace=wrap;html=1;fontFamily=Atkinson Hyperlegible Next;fontSize=12;labelBackgroundColor=none;strokeWidth=1;movable=1;resizable=1;rotatable=1;deletable=1;editable=1;locked=0;connectable=1;" vertex="1" parent="1">
          <mxGeometry x="330.0000000000001" y="60" width="140.03" height="40" as="geometry" />
        </mxCell>
        <mxCell id="weJZYdWANkqrHa0fTlkY-11" style="edgeStyle=none;shape=connector;rounded=1;jumpStyle=none;jumpSize=6;orthogonalLoop=1;jettySize=auto;html=1;exitX=0.5;exitY=0;exitDx=0;exitDy=0;entryX=0.25;entryY=1;entryDx=0;entryDy=0;shadow=0;strokeColor=default;strokeWidth=1;align=center;verticalAlign=middle;fontFamily=Atkinson Hyperlegible Next;fontSize=12;fontColor=default;labelBackgroundColor=default;resizable=1;startArrow=none;startFill=0;startSize=6;endArrow=block;endFill=1;endSize=6;flowAnimation=0;" edge="1" parent="1" source="weJZYdWANkqrHa0fTlkY-14" target="weJZYdWANkqrHa0fTlkY-10">
          <mxGeometry relative="1" as="geometry" />
        </mxCell>
        <mxCell id="weJZYdWANkqrHa0fTlkY-12" style="edgeStyle=none;shape=connector;rounded=1;jumpStyle=none;jumpSize=6;orthogonalLoop=1;jettySize=auto;html=1;exitX=0.75;exitY=0;exitDx=0;exitDy=0;entryX=0.25;entryY=1;entryDx=0;entryDy=0;shadow=0;strokeColor=default;strokeWidth=1;align=center;verticalAlign=middle;fontFamily=Atkinson Hyperlegible Next;fontSize=12;fontColor=default;labelBackgroundColor=default;resizable=1;startArrow=none;startFill=0;startSize=6;endArrow=block;endFill=1;endSize=6;flowAnimation=0;" edge="1" parent="1" source="weJZYdWANkqrHa0fTlkY-14" target="weJZYdWANkqrHa0fTlkY-9">
          <mxGeometry relative="1" as="geometry" />
        </mxCell>
        <mxCell id="weJZYdWANkqrHa0fTlkY-13" style="edgeStyle=none;shape=connector;rounded=1;jumpStyle=none;jumpSize=6;orthogonalLoop=1;jettySize=auto;html=1;exitX=0.25;exitY=0;exitDx=0;exitDy=0;entryX=0.25;entryY=1;entryDx=0;entryDy=0;shadow=0;strokeColor=default;strokeWidth=1;align=center;verticalAlign=middle;fontFamily=Atkinson Hyperlegible Next;fontSize=12;fontColor=default;labelBackgroundColor=default;resizable=1;startArrow=none;startFill=0;startSize=6;endArrow=block;endFill=1;endSize=6;flowAnimation=0;" edge="1" parent="1" source="weJZYdWANkqrHa0fTlkY-14" target="weJZYdWANkqrHa0fTlkY-8">
          <mxGeometry relative="1" as="geometry" />
        </mxCell>
        <mxCell id="weJZYdWANkqrHa0fTlkY-14" value="Manager" style="rounded=0;whiteSpace=wrap;html=1;fontFamily=Atkinson Hyperlegible Next;fontSize=12;labelBackgroundColor=none;strokeWidth=1;movable=1;resizable=1;rotatable=1;deletable=1;editable=1;locked=0;connectable=1;" vertex="1" parent="1">
          <mxGeometry x="170.09000000000003" y="180" width="140.03" height="40" as="geometry" />
        </mxCell>
        <mxCell id="weJZYdWANkqrHa0fTlkY-15" style="edgeStyle=none;shape=connector;rounded=1;jumpStyle=none;jumpSize=6;orthogonalLoop=1;jettySize=auto;html=1;exitX=0.5;exitY=0;exitDx=0;exitDy=0;entryX=0.75;entryY=1;entryDx=0;entryDy=0;shadow=0;strokeColor=default;strokeWidth=1;align=center;verticalAlign=middle;fontFamily=Atkinson Hyperlegible Next;fontSize=12;fontColor=default;labelBackgroundColor=default;resizable=1;startArrow=none;startFill=0;startSize=6;endArrow=block;endFill=1;endSize=6;flowAnimation=0;" edge="1" parent="1" source="weJZYdWANkqrHa0fTlkY-18" target="weJZYdWANkqrHa0fTlkY-10">
          <mxGeometry relative="1" as="geometry" />
        </mxCell>
        <mxCell id="weJZYdWANkqrHa0fTlkY-16" style="edgeStyle=none;shape=connector;rounded=1;jumpStyle=none;jumpSize=6;orthogonalLoop=1;jettySize=auto;html=1;exitX=0.25;exitY=0;exitDx=0;exitDy=0;entryX=0.75;entryY=1;entryDx=0;entryDy=0;shadow=0;strokeColor=default;strokeWidth=1;align=center;verticalAlign=middle;fontFamily=Atkinson Hyperlegible Next;fontSize=12;fontColor=default;labelBackgroundColor=default;resizable=1;startArrow=none;startFill=0;startSize=6;endArrow=block;endFill=1;endSize=6;flowAnimation=0;" edge="1" parent="1" source="weJZYdWANkqrHa0fTlkY-18" target="weJZYdWANkqrHa0fTlkY-8">
          <mxGeometry relative="1" as="geometry" />
        </mxCell>
        <mxCell id="weJZYdWANkqrHa0fTlkY-17" style="edgeStyle=none;shape=connector;rounded=1;jumpStyle=none;jumpSize=6;orthogonalLoop=1;jettySize=auto;html=1;exitX=0.75;exitY=0;exitDx=0;exitDy=0;entryX=0.75;entryY=1;entryDx=0;entryDy=0;shadow=0;strokeColor=default;strokeWidth=1;align=center;verticalAlign=middle;fontFamily=Atkinson Hyperlegible Next;fontSize=12;fontColor=default;labelBackgroundColor=default;resizable=1;startArrow=none;startFill=0;startSize=6;endArrow=block;endFill=1;endSize=6;flowAnimation=0;" edge="1" parent="1" source="weJZYdWANkqrHa0fTlkY-18" target="weJZYdWANkqrHa0fTlkY-9">
          <mxGeometry relative="1" as="geometry" />
        </mxCell>
        <mxCell id="weJZYdWANkqrHa0fTlkY-18" value="Manager" style="rounded=0;whiteSpace=wrap;html=1;fontFamily=Atkinson Hyperlegible Next;fontSize=12;labelBackgroundColor=none;strokeWidth=1;movable=1;resizable=1;rotatable=1;deletable=1;editable=1;locked=0;connectable=1;" vertex="1" parent="1">
          <mxGeometry x="490.09000000000015" y="180" width="140.03" height="40" as="geometry" />
        </mxCell>
        <mxCell id="weJZYdWANkqrHa0fTlkY-19" style="edgeStyle=none;shape=connector;rounded=1;jumpStyle=none;jumpSize=6;orthogonalLoop=1;jettySize=auto;html=1;exitX=0.5;exitY=0;exitDx=0;exitDy=0;shadow=0;strokeColor=default;strokeWidth=1;align=center;verticalAlign=middle;fontFamily=Atkinson Hyperlegible Next;fontSize=12;fontColor=default;labelBackgroundColor=default;resizable=1;startArrow=none;startFill=0;startSize=6;endArrow=block;endFill=1;endSize=6;flowAnimation=0;" edge="1" parent="1" source="weJZYdWANkqrHa0fTlkY-21" target="weJZYdWANkqrHa0fTlkY-7">
          <mxGeometry relative="1" as="geometry">
            <mxPoint x="379.94999999999993" y="345" as="sourcePoint" />
          </mxGeometry>
        </mxCell>
        <mxCell id="weJZYdWANkqrHa0fTlkY-20" style="edgeStyle=none;shape=connector;rounded=1;jumpStyle=none;jumpSize=6;orthogonalLoop=1;jettySize=auto;html=1;exitX=0.983;exitY=-0.006;exitDx=0;exitDy=0;entryX=0.5;entryY=1;entryDx=0;entryDy=0;shadow=0;strokeColor=default;strokeWidth=1;align=center;verticalAlign=middle;fontFamily=Atkinson Hyperlegible Next;fontSize=12;fontColor=default;labelBackgroundColor=default;resizable=1;startArrow=none;startFill=0;startSize=6;endArrow=block;endFill=1;endSize=6;flowAnimation=0;exitPerimeter=0;" edge="1" parent="1" source="weJZYdWANkqrHa0fTlkY-21" target="weJZYdWANkqrHa0fTlkY-22">
          <mxGeometry relative="1" as="geometry" />
        </mxCell>
        <mxCell id="weJZYdWANkqrHa0fTlkY-21" value="Virtualization / Cloud" style="rounded=0;whiteSpace=wrap;html=1;fontFamily=Atkinson Hyperlegible Next;fontSize=12;labelBackgroundColor=none;strokeWidth=1;movable=1;resizable=1;rotatable=1;deletable=1;editable=1;locked=0;connectable=1;" vertex="1" parent="1">
          <mxGeometry x="100.07" y="360" width="600" height="40" as="geometry" />
        </mxCell>
        <mxCell id="weJZYdWANkqrHa0fTlkY-22" value="External Database" style="rounded=0;whiteSpace=wrap;html=1;fontFamily=Atkinson Hyperlegible Next;fontSize=12;labelBackgroundColor=none;strokeWidth=1;movable=1;resizable=1;rotatable=1;deletable=1;editable=1;locked=0;connectable=1;" vertex="1" parent="1">
          <mxGeometry x="660.0700000000002" y="180" width="60.02" height="40" as="geometry" />
        </mxCell>
        <mxCell id="weJZYdWANkqrHa0fTlkY-23" style="edgeStyle=none;shape=connector;rounded=1;jumpStyle=none;jumpSize=6;orthogonalLoop=1;jettySize=auto;html=1;exitX=0.5;exitY=0;exitDx=0;exitDy=0;shadow=0;strokeColor=default;strokeWidth=1;align=center;verticalAlign=middle;fontFamily=Atkinson Hyperlegible Next;fontSize=12;fontColor=default;labelBackgroundColor=default;resizable=1;startArrow=none;startFill=0;startSize=6;endArrow=block;endFill=1;endSize=6;flowAnimation=0;" edge="1" parent="1" source="weJZYdWANkqrHa0fTlkY-26" target="weJZYdWANkqrHa0fTlkY-10">
          <mxGeometry relative="1" as="geometry" />
        </mxCell>
        <mxCell id="weJZYdWANkqrHa0fTlkY-24" style="edgeStyle=none;shape=connector;rounded=1;jumpStyle=none;jumpSize=6;orthogonalLoop=1;jettySize=auto;html=1;exitX=0.75;exitY=0;exitDx=0;exitDy=0;entryX=0.5;entryY=1;entryDx=0;entryDy=0;shadow=0;strokeColor=default;strokeWidth=1;align=center;verticalAlign=middle;fontFamily=Atkinson Hyperlegible Next;fontSize=12;fontColor=default;labelBackgroundColor=default;resizable=1;startArrow=none;startFill=0;startSize=6;endArrow=block;endFill=1;endSize=6;flowAnimation=0;" edge="1" parent="1" source="weJZYdWANkqrHa0fTlkY-26" target="weJZYdWANkqrHa0fTlkY-9">
          <mxGeometry relative="1" as="geometry" />
        </mxCell>
        <mxCell id="weJZYdWANkqrHa0fTlkY-25" style="edgeStyle=none;shape=connector;rounded=1;jumpStyle=none;jumpSize=6;orthogonalLoop=1;jettySize=auto;html=1;exitX=0.25;exitY=0;exitDx=0;exitDy=0;entryX=0.5;entryY=1;entryDx=0;entryDy=0;shadow=0;strokeColor=default;strokeWidth=1;align=center;verticalAlign=middle;fontFamily=Atkinson Hyperlegible Next;fontSize=12;fontColor=default;labelBackgroundColor=default;resizable=1;startArrow=none;startFill=0;startSize=6;endArrow=block;endFill=1;endSize=6;flowAnimation=0;" edge="1" parent="1" source="weJZYdWANkqrHa0fTlkY-26" target="weJZYdWANkqrHa0fTlkY-8">
          <mxGeometry relative="1" as="geometry" />
        </mxCell>
        <mxCell id="weJZYdWANkqrHa0fTlkY-26" value="Manager" style="rounded=0;whiteSpace=wrap;html=1;fontFamily=Atkinson Hyperlegible Next;fontSize=12;labelBackgroundColor=none;strokeWidth=1;movable=1;resizable=1;rotatable=1;deletable=1;editable=1;locked=0;connectable=1;" vertex="1" parent="1">
          <mxGeometry x="330.11" y="180" width="140.03" height="40" as="geometry" />
        </mxCell>
      </root>
    </mxGraphModel>
  </diagram>
</mxfile>
